<?xml version="1.0" standalone="no"?>
<!DOCTYPE svg PUBLIC "-//W3C//DTD SVG 20010904//EN"
 "http://www.w3.org/TR/2001/REC-SVG-20010904/DTD/svg10.dtd">
<svg version="1.0" xmlns="http://www.w3.org/2000/svg"
 width="300.000000pt" height="300.000000pt" viewBox="0 0 300.000000 300.000000"
 preserveAspectRatio="xMidYMid meet">
<metadata>
Created by potrace 1.11, written by Peter Selinger 2001-2013
</metadata>
<g transform="translate(0.000000,300.000000) scale(0.100000,-0.100000)"
fill="#000000" stroke="none">
<path d="M785 2313 c-339 -48 -617 -288 -706 -608 -32 -116 -31 -364 2 -426 5
-10 8 -19 5 -19 -6 0 33 -93 67 -157 109 -209 361 -386 602 -421 88 -13 275
-6 350 12 147 37 321 139 419 247 l46 51 0 264 c0 145 -3 264 -7 265 -10 1
-584 1 -600 0 -10 -1 -13 -34 -13 -131 l0 -130 163 0 162 0 0 -77 -1 -77 -39
-29 c-223 -165 -522 -147 -715 43 -128 127 -183 287 -156 463 23 156 142 313
293 387 166 80 376 74 532 -18 24 -14 70 -52 101 -84 32 -32 60 -58 62 -58 10
0 193 191 196 204 4 18 -108 120 -190 173 -136 88 -253 123 -423 127 -66 2
-133 1 -150 -1z"/>
<path d="M1900 1495 l0 -785 150 0 c113 0 150 3 151 13 0 6 1 163 2 347 l2
335 368 0 367 0 0 123 c0 109 -2 122 -17 123 -10 0 -175 1 -368 2 l-350 2 -1
183 -1 182 246 0 c135 -1 303 -1 374 0 l127 0 0 130 0 130 -525 0 -525 0 0
-785z"/>
</g>
</svg>
